<svg width="104" height="32" viewBox="0 0 104 32" fill="none" xmlns="http://www.w3.org/2000/svg">
<path fill-rule="evenodd" clip-rule="evenodd" d="M19.7121 7.86753C24.2065 7.86753 27.8499 11.5085 27.8499 16C27.8499 20.4915 24.2065 24.1324 19.7121 24.1324C15.2177 24.1324 11.5743 20.4915 11.5743 16C11.5743 11.5085 15.2177 7.86753 19.7121 7.86753ZM103.724 24.1324H101.522L93.684 11.7078L93.6154 11.7307V24.1324H91.4135V7.86373H93.6154L101.454 20.2769L101.522 20.2541V7.86373H103.724V24.1324ZM80.3469 14.5337C80.3469 13.0464 79.9424 11.8222 79.1372 10.8688C78.332 9.91546 77.252 9.43871 75.8974 9.43871C74.6151 9.43871 73.5924 9.91546 72.8292 10.8688C72.0622 11.8222 71.6806 13.0464 71.6806 14.5337V17.4511C71.6806 18.9575 72.0622 20.1854 72.8292 21.1388C73.5924 22.0922 74.6151 22.5689 75.8974 22.5689C77.2597 22.5689 78.3435 22.0922 79.1448 21.1426C79.9462 20.193 80.3469 18.9613 80.3469 17.4511V14.5337ZM60.3926 24.1324H58.1793V7.86373H60.3926V24.1324ZM82.5487 17.4511C82.5487 19.4379 81.9306 21.0892 80.698 22.4011C79.4653 23.713 77.8626 24.3651 75.8974 24.3689C73.9969 24.3651 72.4514 23.713 71.2608 22.4011C70.074 21.0892 69.4787 19.4379 69.4787 17.4511V14.5566C69.4787 12.5773 70.074 10.926 71.2608 9.6065C72.4514 8.29088 73.9969 7.63108 75.8974 7.63108C77.8626 7.63108 79.4653 8.28702 80.698 9.6027C81.9306 10.9184 82.5487 12.5697 82.5487 14.5566V17.4511ZM39.9003 15.3498H43.0409C44.2888 15.3498 45.1855 15.1134 45.7313 14.6405C46.2808 14.1676 46.5517 13.4468 46.5517 12.4782C46.5517 11.5629 46.2884 10.8536 45.7541 10.3502C45.2199 9.84681 44.3918 9.59514 43.266 9.59514H39.9003V15.3498ZM39.9003 17.0811V24.1324H37.6984V7.87519H43.266C45.0481 7.87519 46.4067 8.27176 47.3455 9.06119C48.2842 9.85061 48.7574 10.9985 48.7574 12.5011C48.7574 13.3362 48.536 14.0608 48.101 14.6786C47.666 15.3002 47.0287 15.7883 46.1968 16.1545C47.0898 16.4443 47.7308 16.9172 48.124 17.5693C48.517 18.2214 48.7116 19.0261 48.7116 19.9871V21.5164C48.7116 22.0235 48.765 22.4774 48.8795 22.8816C48.9902 23.282 49.1848 23.6099 49.4596 23.8655V24.1324H47.189C46.899 23.8808 46.712 23.507 46.6318 23.0151C46.5479 22.5231 46.5098 22.0159 46.5098 21.4973V20.0099C46.5098 19.1291 46.2503 18.4235 45.7389 17.8858C45.2237 17.3519 44.533 17.0811 43.6705 17.0811H39.9003ZM6.14427 25.6857C7.62485 25.6857 8.82509 26.8852 8.82509 28.3648C8.82509 28.8491 8.69656 29.3033 8.47166 29.6953C10.7074 30.9271 13.277 31.6281 16.0105 31.6281C20.3288 31.6281 24.2386 29.8788 27.0685 27.0507C28.5647 25.5555 29.759 23.7584 30.5527 21.759C30 22.7686 29.3067 23.6904 28.4988 24.4977C26.3227 26.6724 23.3162 28.0175 19.9955 28.0175C16.6749 28.0175 13.6683 26.6724 11.4922 24.4977C9.31614 22.323 7.97012 19.3185 7.97012 16C7.97012 12.6815 9.31614 9.67696 11.4922 7.50228C11.9926 7.00225 12.537 6.54618 13.1189 6.14014C13.0095 5.93958 12.9472 5.70952 12.9472 5.46489C12.9472 4.6847 13.5801 4.0523 14.3608 4.0523C14.9034 4.0523 15.3746 4.35789 15.6115 4.80623C16.9699 4.2745 18.4486 3.98243 19.9955 3.98243C23.3162 3.98243 26.3227 5.32761 28.4988 7.50228C29.3066 8.30955 30 9.23137 30.5527 10.241C29.7591 8.24158 28.5647 6.44459 27.0685 4.94927C24.2386 2.12121 20.3288 0.371891 16.0105 0.371891C11.6921 0.371891 7.78243 2.12121 4.95251 4.94927C2.1226 7.77739 0.372135 11.6845 0.372135 16C0.372135 19.9898 1.86834 23.6303 4.33054 26.3921C4.80791 25.9535 5.44475 25.6857 6.14427 25.6857ZM8.26366 30.0054C7.77325 30.6371 7.00631 31.0439 6.14427 31.0439C4.66366 31.0439 3.46342 29.8444 3.46342 28.3648C3.46342 27.7186 3.69235 27.1256 4.07369 26.6629C1.54043 23.8327 0 20.0962 0 16C0 11.5819 1.79207 7.58171 4.68934 4.68627C7.58661 1.7909 11.5893 0 16.0105 0C20.4315 0 24.4344 1.7909 27.3316 4.68627C30.1942 7.54704 31.9776 11.4864 32.0199 15.8417C32.0206 15.8943 32.021 15.9471 32.021 16C32.021 16.0529 32.0206 16.1057 32.0199 16.1583C31.9776 20.5138 30.1942 24.453 27.3316 27.3137C24.4344 30.2091 20.4315 32 16.0105 32C13.2003 32 10.5593 31.2762 8.26366 30.0054ZM15.7402 5.15527C15.7625 5.25486 15.7743 5.35855 15.7743 5.46489C15.7743 6.24511 15.1415 6.87751 14.3608 6.87751C13.9587 6.87751 13.5959 6.70982 13.3385 6.44056C12.7721 6.83528 12.2422 7.27877 11.7554 7.76528C9.64661 9.87271 8.34222 12.7842 8.34222 16C8.34222 19.2158 9.64661 22.1273 11.7554 24.2347C13.8642 26.3421 16.7776 27.6456 19.9955 27.6456C23.2135 27.6456 26.1268 26.3421 28.2356 24.2347C30.3445 22.1273 31.6488 19.2158 31.6488 16C31.6488 12.7842 30.3445 9.87271 28.2356 7.76528C26.1268 5.65792 23.2135 4.35432 19.9955 4.35432C18.4938 4.35432 17.0584 4.63827 15.7402 5.15527ZM19.7121 9.97774C23.0402 9.97774 25.7383 12.674 25.7383 16C25.7383 19.326 23.0402 22.0223 19.7121 22.0223C16.3839 22.0223 13.6858 19.326 13.6858 16C13.6858 12.674 16.3839 9.97774 19.7121 9.97774Z" fill="white"/>
</svg>
